<svg xmlns="http://www.w3.org/2000/svg" xmlns:xlink="http://www.w3.org/1999/xlink" version="1.1" id="Calque_1" x="0px" y="0px" viewBox="0 0 300 88" style="enable-background:new 0 0 300 88;" xml:space="preserve" width="300"  height="88" >
<style type="text/css">
	.st0{fill:#020203;}
</style>
<g>
	<path class="st0" d="M26.4,19.8c2.4-2.1,3.7-5,3.7-8.2c0-6.5-4.7-10.8-13.3-10.8H0.1v43.1h20.5c8.6,0,13.9-5.6,13.9-13.1   C34.6,25.3,31.6,21.5,26.4,19.8 M8.4,17.7V8.5h7.9c4.1,0,6.1,1.7,6.1,4.6s-1.9,4.6-6.1,4.6L8.4,17.7z M26.2,30.7   c0,3.5-2.3,5.5-6.7,5.5H8.4V25.2h11.1C23.9,25.2,26.2,27.2,26.2,30.7 M74.8,43.9h9.1L67.2,0.8h-7.9L42.2,43.9h9l3.1-8h17.4   L74.8,43.9z M57.4,28.4l5.7-14.6l5.7,14.6H57.4z M103.4,0.7h-8.3v43.2h24.4V36h-16.1V0.7z M150.5,34h5.6l10.7-19.8v29.9h9V0.6   h-11.7l-10.9,19.9L142,0.6h-11.3v43.6h8.7V14.5L150.5,34z M218.2,43.9h9.1L210.6,0.8h-7.9l-17.1,43.1h9l3.1-8h17.4L218.2,43.9z    M200.8,28.4l5.7-14.6l5.7,14.6H200.8z M237.4,43.9h8.5V0.8h-8.5V43.9z M291.5,0.8v28l-22.3-28h-8.7v43.1h8.3V13.8l23.9,30.1h7.1   V0.8H291.5z"/>
	<path class="st0" d="M103.9,79.7h-4.4v7.8h-4.3V65.9h8.8c4.5,0,7,2.6,7,7C111,77.3,108.5,79.7,103.9,79.7z M103.7,75.7   c1.8,0,2.8-1,2.8-2.9c0-1.8-1-2.9-2.8-2.9h-4.1v5.8H103.7z"/>
	<path class="st0" d="M131,84h-8.4l-1.4,3.5h-4.7l8.4-21.7h3.8l8.1,21.7h-4.6L131,84z M129.6,80.1l-2.7-7.2l-2.7,7.2H129.6z"/>
	<path class="st0" d="M158.4,79.3l4.2,8.3h-4.9l-4-7.8H151v7.8h-4.3V65.9h8.8c4.5,0,7,2.6,7,7C162.5,76.2,161,78.4,158.4,79.3z    M155.2,75.7c1.8,0,2.8-1,2.8-2.9c0-1.8-1.1-2.9-2.9-2.9H151v5.8H155.2z"/>
	<path class="st0" d="M173,65.9h4.3v21.7H173V65.9z"/>
	<path class="st0" d="M195.4,74.3l4.3,1.2c3.4,1,5.2,2.9,5.2,5.9c0,4-3.1,6.4-8.1,6.4c-5.6,0-8.3-2.4-8.8-7.7h4.8   c0.5,2.7,1.6,3.7,4.2,3.7c2.1,0,3.4-0.8,3.4-2.2c0-1.2-0.9-1.9-2.6-2.3l-4.3-1.3c-3.5-1-5.1-2.8-5.1-6c0-3.8,3.3-6.4,8-6.4   c5.2,0,8.5,3,8.5,7.8H200c0.1-2.5-1.3-3.8-4-3.8c-2.1,0-3.4,0.8-3.4,2.2C192.7,73.1,193.6,73.8,195.4,74.3z"/>
</g>
</svg>